# xmcd
#
# Track frame offsets: 
#        225
#        13669
#        28302
#        45797
#        62378
#        75012
#        91394
#        108767
#        125699
#        143101
#        159335
#        181459
#        196161
#        211351
#        222221
#        241306
#        257910
#        281724
#        293375
#
# Disc length: 4058 seconds
#
# Revision: 1
# Processed by: cddbd v1.5.2PL0 Copyright (c) Steve Scherf et al.
# Submitted via: ExactAudioCopyFreeDBPlugin 1.0
#
DISCID=fd0fd713
DTITLE=The Riverside Singers - Live Au café des Arts - Vol 4
DYEAR=2004
DGENRE=Gospel
TTITLE0=Where shall I be
TTITLE1=Steal away n'pray
TTITLE2=Down by the riverside
TTITLE3=Dry bones
TTITLE4=Steal away by Jesus
TTITLE5=Jezebel
TTITLE6=O rocks
TTITLE7=One step
TTITLE8=Sometimes
TTITLE9=Tell me when was Jesus born
TTITLE10=He never said a mumblin'word
TTITLE11=Go tell it on the mountain
TTITLE12=Roll Jordan roll
TTITLE13=I'll fly away
TTITLE14=Go down Moses
TTITLE15=Heavenly highway
TTITLE16=Cotton fields
TTITLE17=Halleluya
TTITLE18=Jericho
EXTD=
EXTT0=
EXTT1=
EXTT2=
EXTT3=
EXTT4=
EXTT5=
EXTT6=
EXTT7=
EXTT8=
EXTT9=
EXTT10=
EXTT11=
EXTT12=
EXTT13=
EXTT14=
EXTT15=
EXTT16=
EXTT17=
EXTT18=
PLAYORDER=
